<?xml version="1.0" encoding="utf-8"?>
<!-- Generator: Adobe Illustrator 22.0.1, SVG Export Plug-In . SVG Version: 6.00 Build 0)  -->
<svg version="1.1" id="Layer_1" xmlns="http://www.w3.org/2000/svg" xmlns:xlink="http://www.w3.org/1999/xlink" x="0px" y="0px"
	 viewBox="0 0 256.8 47.4" style="enable-background:new 0 0 256.8 47.4;" xml:space="preserve">
<style type="text/css">
	.st0{fill:#FFFFFF;}
	.st1{fill:#F7474D;}
</style>
<g>
	<g>
		<polyline class="st0" points="7.8,9.6 6.5,10.4 6.5,34.1 9.3,35.8 9.4,32.1 9.4,13.8 25.5,23.1 25.5,45.1 27,46 28.9,44.8 
			28.9,44.8 45.2,35.4 45.2,35.4 45.5,35.3 46.1,34.9 46.2,34.9 47.7,34 47.7,30.4 44.1,32.7 28.4,41.7 28.4,24.2 28.4,24.2 
			28.4,21.4 27,20.6 10.8,11.3 		"/>
	</g>
</g>
<polygon class="st1" points="13.8,8.1 24.6,2 35.4,8.1 24.6,14.1 "/>
<path class="st0" d="M69.1,33.7L63,25.1h-4.8v8.7h-1V13.7h6.9c3.2,0,5.9,2,5.9,5.7s-2.7,5.7-5.9,5.7l6.2,8.7H69.1z M69,19.3
	c0-2.8-1.9-4.8-4.9-4.8h-6v9.6h6C67.1,24.2,69,22.1,69,19.3z"/>
<rect x="78.6" y="23" class="st0" width="11.5" height="0.9"/>
<rect x="78.6" y="13.7" class="st0" width="11.7" height="0.9"/>
<rect x="78.6" y="32.8" class="st0" width="11.7" height="0.9"/>
<path class="st0" d="M103.9,33.7V14.6h-6.8v-0.9h14.5v0.9h-6.8v19.2H103.9z"/>
<path class="st0" d="M129.7,33.7l-6.1-8.7h-4.8v8.7h-1V13.7h6.9c3.2,0,5.9,2,5.9,5.7s-2.7,5.7-5.9,5.7l6.2,8.7H129.7z M129.6,19.3
	c0-2.8-1.9-4.8-4.9-4.8h-6v9.6h6C127.7,24.2,129.6,22.1,129.6,19.3z"/>
<path class="st0" d="M137.1,23.7c0-5.8,3.7-10.4,9.5-10.4c5.8,0,9.5,4.6,9.5,10.4s-3.7,10.4-9.5,10.4
	C140.8,34.1,137.1,29.5,137.1,23.7z M155.2,23.7c0-5.5-3.3-9.5-8.5-9.5c-5.2,0-8.5,4-8.5,9.5c0,5.4,3.3,9.5,8.5,9.5
	C151.8,33.2,155.2,29.2,155.2,23.7z"/>
<path class="st1" d="M176.9,34.6c-6,0-10.6-4.7-10.6-10.9c0-6.2,4.5-10.9,10.6-10.9c2.9,0,5.5,1.2,7.4,3.4l0.4,0.4l-1.6,1.4
	l-0.4-0.5c-1.3-1.7-3.5-2.7-5.8-2.7c-4.9,0-8.4,3.7-8.4,8.9c0,5.2,3.5,8.9,8.4,8.9c2.3,0,4.4-1,5.8-2.7l0.4-0.4l1.7,1.4l-0.4,0.4
	C182.4,33.5,179.9,34.6,176.9,34.6z"/>
<path class="st1" d="M199.2,34.6c-5.1,0-8-3.1-8-8.5v-13h2.1v13c0,4.2,2.1,6.5,5.9,6.5c3.8,0,5.9-2.3,5.9-6.5v-13h2.1v13
	C207.2,31.5,204.3,34.6,199.2,34.6z"/>
<path class="st1" d="M214.2,34.3V13.1h8.1c3.7,0,6,2.2,6,5.7c0,2.3-1.2,3.8-2.5,4.6c1.7,1,2.9,3,2.9,5c0,3.7-2.4,6-6.3,6H214.2z
	 M222.4,32.3c2.6,0,4.1-1.5,4.1-3.9c0-1.9-1.3-3.9-4.1-3.9h-6.1v7.8H222.4z M222.3,22.4c2.8,0,3.9-1.9,3.9-3.6
	c0-2.2-1.5-3.6-3.9-3.6h-6v7.3H222.3z"/>
<rect x="235.5" y="22.4" class="st1" width="12.6" height="2"/>
<rect x="235.5" y="32.3" class="st1" width="12.8" height="2"/>
<rect x="235.5" y="13.1" class="st1" width="12.8" height="2"/>
</svg>
